<svg width="73" height="49" viewBox="0 0 73 49" fill="none" xmlns="http://www.w3.org/2000/svg">
<path d="M31.9542 9.50943L24.7344 2.24528L2.27289 24.434L24.7344 46.7547L31.9542 39.4906L33.0238 40.6792L24.7344 48.8679C16.4451 40.7673 8.20024 32.6226 0 24.434L24.7344 0L33.1575 8.32076L31.9542 9.50943ZM41.4469 40.0189L48.2656 46.7547L70.7271 24.566L48.2656 2.37736L41.3132 9.24528L40.1099 8.18868L48.2656 0.132076C56.5549 8.32076 64.7998 16.4654 73 24.566L48.2656 49L40.2436 41.0755L41.4469 40.0189Z" fill="#3E4841"/>
<path fill-rule="evenodd" clip-rule="evenodd" d="M51.4643 25.0179L37 39L22 24.5L37 10L52 24.5L51.4643 25.0179ZM37.1339 36.7991L48.7857 25.4062H39.2768V23.8527H49.1875L37.1339 12.2009L24.9464 23.8527H34.5893V25.4062H25.3482L37.1339 36.7991Z" fill="#3E4841"/>
</svg>
