<svg width="45" height="30" viewBox="0 0 45 30" fill="none" xmlns="http://www.w3.org/2000/svg">
<path d="M19.5638 5.8221L15.1435 1.37466L1.39157 14.9596L15.1435 28.6253L19.5638 24.1779L20.2187 24.9057L15.1435 29.9191C10.0684 24.9596 5.02056 19.973 0 14.9596L15.1435 0L20.3005 5.09434L19.5638 5.8221ZM25.3757 24.5013L29.5503 28.6253L43.3023 15.0404L29.5503 1.45553L25.2938 5.66038L24.5571 5.01348L29.5503 0.0808626C34.6255 5.09434 39.6733 10.0809 44.6939 15.0404L29.5503 30L24.6389 25.1482L25.3757 24.5013Z" fill="#EEEBE6"/>
<path fill-rule="evenodd" clip-rule="evenodd" d="M31.5087 15.3172L22.653 23.8777L13.4694 15.0001L22.653 6.12256L31.8367 15.0001L31.5087 15.3172ZM22.735 22.5302L29.8688 15.555H24.047V14.6038H30.1148L22.735 7.47004L15.2733 14.6038H21.1771V15.555H15.5193L22.735 22.5302Z" fill="#EEEBE6"/>
</svg>
