<svg width="225" height="71" viewBox="0 0 225 71" fill="none" xmlns="http://www.w3.org/2000/svg">
<g clip-path="url(#clip0_90_18)">
<mask id="mask0_90_18" style="mask-type:luminance" maskUnits="userSpaceOnUse" x="-117" y="-99" width="459" height="269">
<path d="M-116.043 -98.1728H341.043V169.173H-116.043V-98.1728Z" fill="white"/>
</mask>
<g mask="url(#mask0_90_18)">
<path fill-rule="evenodd" clip-rule="evenodd" d="M9.38977 57.063C9.38977 56.9461 9.38977 56.8292 9.38977 56.7123C9.38977 56.537 9.36025 56.3909 9.30119 56.2741C9.24214 56.1572 9.18308 56.0696 9.12403 56.0111C9.06497 55.8942 8.97639 55.8358 8.85828 55.8358C8.74017 55.8358 8.62206 55.8942 8.50395 56.0111C8.38584 56.0696 8.26773 56.1572 8.14962 56.2741C7.85434 56.5078 7.47048 56.7416 6.99804 56.9753C6.58466 57.2091 6.08269 57.3259 5.49214 57.3259C4.66536 57.3259 3.89765 57.1506 3.18899 56.8C2.53938 56.391 1.97836 55.8942 1.50592 55.3099C1.03347 54.6671 0.679144 53.9074 0.442923 53.0309C0.206703 52.2128 0.0885925 51.3362 0.0885925 50.4012C0.0885925 49.4663 0.206703 48.5313 0.442923 47.5963C0.679144 46.7198 1.03347 45.9309 1.50592 45.2296C1.97836 44.5284 2.53938 43.9733 3.18899 43.5642C3.89765 43.1551 4.66536 42.9506 5.49214 42.9506C5.90552 42.9506 6.25985 43.0091 6.55513 43.1259C6.8504 43.2428 7.11615 43.3889 7.35237 43.5642C7.58859 43.6811 7.82481 43.7979 8.06103 43.9148C8.29725 44.0317 8.53347 44.0901 8.76969 44.0901C8.94686 44.0901 9.0945 44.0609 9.21261 44.0025C9.27166 43.8856 9.30119 43.7395 9.30119 43.5642H9.7441V47.7716H9.30119C9.30119 47.2457 9.18308 46.7198 8.94686 46.1938C8.7697 45.7263 8.53347 45.2881 8.2382 44.879C7.94292 44.47 7.58859 44.1193 7.17521 43.8272C6.82088 43.5934 6.40749 43.4765 5.93505 43.4765C5.46261 43.4765 5.07875 43.5934 4.78347 43.8272C4.42914 44.0609 4.1634 44.3823 3.98623 44.7914C3.75001 45.142 3.57284 45.5803 3.45473 46.1062C3.27757 46.5737 3.15946 47.0704 3.1004 47.5963C3.04135 48.1222 2.98229 48.6189 2.92324 49.0864C2.92324 49.5539 2.92324 49.9922 2.92324 50.4012C2.92324 51.1025 2.95277 51.8329 3.01182 52.5926C3.12993 53.2938 3.3071 53.9366 3.54332 54.521C3.77954 55.1638 4.13387 55.6605 4.60631 56.0111C5.07875 56.4202 5.69883 56.6247 6.46655 56.6247C6.87993 56.6247 7.26379 56.4786 7.61812 56.1864C7.9134 55.8942 8.17914 55.5144 8.41536 55.0469C8.71064 54.5794 8.94686 54.0827 9.12403 53.5568C9.24214 53.0309 9.33072 52.5634 9.38977 52.1543H9.7441V57.063H9.38977ZM14.8819 56.7123C15.1772 56.7123 15.4429 56.6831 15.6791 56.6247C15.8563 56.6247 16.0039 56.5663 16.1221 56.4494C16.2402 56.3325 16.3583 56.1572 16.4764 55.9235C16.5354 55.7482 16.624 55.4852 16.7421 55.1346C17.3327 53.0893 17.9528 51.0733 18.6024 49.0864C19.1929 47.0412 19.813 44.9959 20.4626 42.9506H21.1713L25.6004 56.7123H26.5748V57.063H21.5256V56.7123H22.9429L21.6142 52.5049H17.8937L17.8051 52.9432C17.687 53.177 17.5984 53.4399 17.5394 53.7321C17.4213 54.0827 17.3327 54.4041 17.2736 54.6963C17.1555 55.0469 17.0669 55.3391 17.0079 55.5728C16.9488 55.865 16.9193 56.0403 16.9193 56.0988C16.9193 56.2741 16.9784 56.4202 17.0965 56.537C17.2146 56.5955 17.3622 56.6539 17.5394 56.7123C17.7165 56.7123 17.9232 56.7123 18.1595 56.7123C18.3366 56.7123 18.4843 56.7123 18.6024 56.7123V57.063H14.8819V56.7123ZM18.0709 52.1543H21.5256L19.7539 46.7198L18.0709 52.1543ZM34.5473 56.7123H35.876V57.063H31.0925V56.7123H32.2441V43.4765H31.0925V43.1259H37.2047C37.6181 43.1259 38.061 43.1844 38.5335 43.3012C39.0059 43.4181 39.3898 43.6226 39.6851 43.9148C40.0394 44.1486 40.3347 44.47 40.5709 44.879C40.8071 45.2881 40.9252 45.814 40.9252 46.4568C40.9252 46.9827 40.8366 47.421 40.6595 47.7716C40.5414 48.1222 40.3347 48.4144 40.0394 48.6482C39.8032 48.9403 39.5079 49.1741 39.1536 49.3494C38.8583 49.5247 38.5039 49.6416 38.0906 49.7V49.963C38.6811 50.0798 39.1536 50.3136 39.5079 50.6642C39.8032 51.0148 40.0394 51.3947 40.2165 51.8037C40.3937 52.2712 40.5118 52.7387 40.5709 53.2062C40.6299 53.6737 40.6595 54.1119 40.6595 54.521C40.6595 54.8716 40.6595 55.1638 40.6595 55.3975C40.7185 55.6897 40.7776 55.9235 40.8366 56.0988C40.8957 56.3325 40.9843 56.5078 41.1024 56.6247C41.1614 56.7416 41.3091 56.8 41.5453 56.8C41.6634 56.8 41.7815 56.7708 41.8996 56.7123C42.0177 56.7123 42.1358 56.6831 42.2539 56.6247L42.4311 56.8877C42.1949 57.0045 41.9587 57.0922 41.7225 57.1506C41.4862 57.2091 41.25 57.2383 41.0138 57.2383C40.3642 57.2383 39.8622 57.1506 39.5079 56.9753C39.1536 56.7416 38.8878 56.4786 38.7106 56.1864C38.5335 55.8942 38.4154 55.5144 38.3563 55.0469C38.2973 54.5794 38.2382 54.0827 38.1791 53.5568C38.1791 53.3815 38.1791 53.2062 38.1791 53.0309C38.1201 52.8556 38.0906 52.6803 38.0906 52.5049C38.0315 51.8621 37.8839 51.3947 37.6476 51.1025C37.4114 50.7519 37.1457 50.4889 36.8504 50.3136C36.5551 50.1967 36.2008 50.1091 35.7874 50.0506C35.374 49.9922 34.9606 49.963 34.5473 49.963V56.7123ZM34.5473 43.5642V49.7H35.2559C35.6102 49.7 35.9941 49.6416 36.4075 49.5247C36.7618 49.4078 37.0866 49.2325 37.3819 48.9988C37.6772 48.765 37.9429 48.4436 38.1791 48.0346C38.3563 47.684 38.4449 47.2165 38.4449 46.6321C38.4449 45.9893 38.3563 45.4926 38.1791 45.142C38.002 44.7329 37.7658 44.4115 37.4705 44.1778C37.1752 43.944 36.8209 43.7687 36.4075 43.6519C36.0532 43.5934 35.6398 43.5642 35.1673 43.5642H34.5473ZM57.9331 52.5049V57.063H47.5689V56.7123H48.8976V43.5642H47.5689V43.2136H52.7067V43.5642H51.2894V56.7123H53.7697C54.4193 56.7123 54.9803 56.6831 55.4528 56.6247C55.9252 56.5663 56.3091 56.391 56.6043 56.0988C56.9587 55.865 57.2244 55.456 57.4016 54.8716C57.5197 54.2872 57.5788 53.4984 57.5788 52.5049H57.9331ZM62.5394 56.7123C62.8347 56.7123 63.0709 56.7123 63.248 56.7123C63.4252 56.6539 63.6024 56.5663 63.7795 56.4494C63.8976 56.3325 63.9862 56.1572 64.0453 55.9235C64.1634 55.7482 64.2815 55.4852 64.3996 55.1346C64.9902 53.0893 65.5807 51.0733 66.1713 49.0864C66.8209 47.0412 67.441 44.9959 68.0315 42.9506H68.7402L73.2579 56.7123H74.1437V57.063H69.1831V56.7123H70.5118L69.1831 52.5926H65.5512L65.374 52.9432C65.315 53.177 65.2264 53.4399 65.1083 53.7321C65.0492 54.0827 64.9606 54.4041 64.8425 54.6963C64.7835 55.0469 64.6949 55.3391 64.5768 55.5728C64.5177 55.865 64.4882 56.0403 64.4882 56.0988C64.4882 56.2741 64.5473 56.4202 64.6654 56.537C64.8425 56.5955 65.0197 56.6539 65.1969 56.7123C65.374 56.7123 65.5512 56.7123 65.7284 56.7123C65.9055 56.7123 66.0532 56.7123 66.1713 56.7123H66.2599V57.063H62.5394V56.7123ZM65.6398 52.242H69.0945L67.3228 46.7198L65.6398 52.242ZM94.6063 56.7123H96.6437C97.2933 56.7123 97.9134 56.7123 98.5039 56.7123C99.0354 56.6539 99.5079 56.5078 99.9213 56.2741C100.335 56.0403 100.659 55.6897 100.896 55.2222C101.132 54.6963 101.25 53.9658 101.25 53.0309H101.604V57.1506H90.9744V56.8H92.0374V43.5642H90.9744V43.2136H101.604V46.6321H101.25C101.132 45.8724 100.925 45.2881 100.63 44.879C100.335 44.47 99.9803 44.1778 99.5669 44.0025C99.1536 43.8272 98.6811 43.7395 98.1496 43.7395C97.6181 43.6811 97.0571 43.6519 96.4665 43.6519H94.6063V49.7877H95.1378C95.6102 49.7877 95.9941 49.7877 96.2894 49.7877C96.6437 49.7292 96.939 49.6416 97.1752 49.5247C97.3524 49.3494 97.5 49.1156 97.6181 48.8235C97.7362 48.4728 97.8248 48.0054 97.8839 47.421H98.1496V52.6803H97.8839C97.8248 52.1543 97.7658 51.7453 97.7067 51.4531C97.5886 51.1025 97.441 50.8395 97.2638 50.6642C97.0866 50.5473 96.8799 50.4597 96.6437 50.4012C96.4075 50.3428 96.1417 50.3136 95.8465 50.3136H94.6063V56.7123ZM107.451 52.1543H107.805C107.864 52.8556 107.982 53.4984 108.159 54.0827C108.337 54.6671 108.573 55.1638 108.868 55.5728C109.163 55.9819 109.547 56.3033 110.02 56.537C110.551 56.7708 111.142 56.8877 111.791 56.8877C112.205 56.8877 112.559 56.8292 112.854 56.7123C113.209 56.5955 113.504 56.4202 113.74 56.1864C113.917 55.9527 114.065 55.6897 114.183 55.3975C114.242 55.0469 114.213 54.6963 114.094 54.3457C113.976 53.9366 113.711 53.6152 113.297 53.3815C112.884 53.0893 112.382 52.8263 111.791 52.5926C111.319 52.3589 110.817 52.0959 110.285 51.8037C109.754 51.57 109.282 51.2486 108.868 50.8395C108.455 50.4305 108.1 49.963 107.805 49.437C107.51 48.8527 107.362 48.1514 107.362 47.3333C107.362 47.2165 107.362 47.0996 107.362 46.9827C107.421 46.8074 107.451 46.6613 107.451 46.5444C107.628 45.3757 108.012 44.5284 108.602 44.0025C109.252 43.4181 110.079 43.0967 111.083 43.0383C111.673 43.0383 112.175 43.1551 112.589 43.3889C113.002 43.5642 113.327 43.7395 113.563 43.9148C113.799 44.0901 114.006 44.1778 114.183 44.1778C114.36 44.1778 114.478 44.0901 114.537 43.9148C114.537 43.7395 114.537 43.5642 114.537 43.3889H114.892V47.5963H114.537C114.419 46.9535 114.301 46.3984 114.183 45.9309C114.006 45.4049 113.77 44.9667 113.474 44.6161C113.238 44.2654 112.913 44.0025 112.5 43.8272C112.087 43.5934 111.614 43.4765 111.083 43.4765C110.728 43.4765 110.374 43.535 110.02 43.6519C109.665 43.7687 109.37 43.9148 109.134 44.0901C108.898 44.2654 108.72 44.5284 108.602 44.879C108.425 45.1712 108.366 45.551 108.425 46.0185C108.425 46.3691 108.514 46.6905 108.691 46.9827C108.868 47.2749 109.104 47.5086 109.4 47.684C109.636 47.9177 109.931 48.093 110.285 48.2099C110.64 48.3852 110.994 48.5313 111.348 48.6482C111.821 48.8235 112.293 49.028 112.766 49.2617C113.238 49.4955 113.652 49.7877 114.006 50.1383C114.419 50.4889 114.774 50.8979 115.069 51.3654C115.305 51.8914 115.482 52.4757 115.6 53.1185C115.6 53.7613 115.512 54.3457 115.335 54.8716C115.157 55.3975 114.892 55.865 114.537 56.2741C114.183 56.6247 113.77 56.8877 113.297 57.063C112.825 57.2967 112.293 57.4136 111.703 57.4136C111.171 57.4136 110.699 57.3259 110.285 57.1506C109.813 56.9753 109.429 56.8292 109.134 56.7123C108.957 56.5955 108.809 56.5078 108.691 56.4494C108.514 56.391 108.366 56.3617 108.248 56.3617C108.071 56.3617 107.953 56.4786 107.894 56.7123C107.835 56.9461 107.805 57.1214 107.805 57.2383H107.451V52.1543ZM124.813 56.8H126.142V57.1506H121.093V56.8H122.333V43.5642H121.093V43.2136H126.053C126.585 43.2136 127.146 43.272 127.736 43.3889C128.327 43.5058 128.858 43.7103 129.331 44.0025C129.803 44.2362 130.217 44.6161 130.571 45.142C130.866 45.6095 131.014 46.2523 131.014 47.0704C131.014 47.7716 130.896 48.3852 130.659 48.9111C130.364 49.437 129.98 49.8461 129.508 50.1383C129.094 50.4305 128.622 50.6642 128.091 50.8395C127.5 50.9564 126.969 51.0148 126.496 51.0148C126.201 51.0148 125.906 51.0148 125.61 51.0148C125.374 50.9564 125.108 50.8395 124.813 50.6642V56.8ZM124.813 50.2259C125.167 50.4597 125.61 50.5765 126.142 50.5765C126.496 50.5765 126.85 50.5181 127.205 50.4012C127.559 50.2259 127.854 49.9922 128.091 49.7C128.327 49.3494 128.504 48.9696 128.622 48.5605C128.74 48.2099 128.799 47.7716 128.799 47.2457C128.799 46.6029 128.711 46.0477 128.533 45.5803C128.415 45.1128 128.179 44.7037 127.825 44.3531C127.53 44.0609 127.175 43.8564 126.762 43.7395C126.348 43.6226 125.876 43.5642 125.344 43.5642C125.285 43.5642 125.226 43.5642 125.167 43.5642C125.049 43.5642 124.931 43.5642 124.813 43.5642V50.2259ZM136.329 43.3012H141.555V43.6519H140.049V56.8H141.555V57.1506H136.329V56.8H137.657V43.6519H136.329V43.3012ZM146.781 56.8C147.195 56.8 147.52 56.8 147.756 56.8C147.992 56.8 148.169 56.7416 148.287 56.6247C148.406 56.5078 148.465 56.3033 148.465 56.0111C148.524 55.7774 148.553 55.4268 148.553 54.9593V43.9148L148.287 43.6519H146.781V43.3012H151.033L157.146 53.2062V45.3173C157.146 44.9082 157.146 44.5868 157.146 44.3531C157.087 44.1193 157.028 43.944 156.969 43.8272C156.85 43.7103 156.732 43.6519 156.614 43.6519C156.437 43.6519 156.201 43.6519 155.906 43.6519H155.463V43.3012H159.272V43.6519H158.74C158.504 43.6519 158.297 43.6519 158.12 43.6519C157.943 43.6519 157.825 43.7103 157.766 43.8272C157.648 43.944 157.589 44.1193 157.589 44.3531C157.53 44.5868 157.5 44.9082 157.5 45.3173V57.3259H156.526L148.907 44.879V54.6086C148.907 55.193 148.907 55.6313 148.907 55.9235C148.967 56.2156 149.026 56.4202 149.085 56.537C149.203 56.7124 149.38 56.8 149.616 56.8C149.852 56.8 150.207 56.8 150.679 56.8V57.1506H146.781V56.8ZM164.321 43.3012H168.661C169.665 43.3012 170.61 43.4181 171.496 43.6519C172.382 43.8272 173.15 44.1778 173.799 44.7037C174.449 45.2881 174.98 46.0185 175.394 46.8951C175.807 47.83 176.014 48.9696 176.014 50.3136C176.014 51.5992 175.807 52.6803 175.394 53.5568C175.039 54.4333 174.537 55.1346 173.888 55.6605C173.297 56.2449 172.559 56.6247 171.673 56.8C170.846 57.0338 169.931 57.1506 168.927 57.1506H164.321V56.8H165.561V43.6519H164.321V43.3012ZM168.041 43.6519V56.8877C169.045 56.8877 169.872 56.7416 170.522 56.4494C171.23 56.1572 171.791 55.7482 172.205 55.2222C172.618 54.6379 172.913 53.9366 173.091 53.1185C173.327 52.3004 173.445 51.307 173.445 50.1383C173.445 49.2033 173.327 48.356 173.091 47.5963C172.913 46.7782 172.618 46.077 172.205 45.4926C171.791 44.9082 171.289 44.47 170.699 44.1778C170.108 43.8272 169.4 43.6519 168.573 43.6519H168.041ZM187.264 43.0383C188.091 43.0383 188.829 43.2428 189.478 43.6519C190.128 44.0609 190.719 44.6161 191.25 45.3173C191.722 46.0185 192.077 46.8074 192.313 47.684C192.608 48.5021 192.756 49.3494 192.756 50.2259C192.756 51.1609 192.608 52.0375 192.313 52.8556C192.077 53.7321 191.722 54.4918 191.25 55.1346C190.719 55.8358 190.128 56.391 189.478 56.8C188.829 57.2091 188.091 57.4136 187.264 57.4136C186.437 57.4136 185.699 57.2091 185.049 56.8C184.4 56.391 183.839 55.8358 183.366 55.1346C182.835 54.4333 182.451 53.6445 182.215 52.7679C181.919 51.8914 181.772 51.0148 181.772 50.1383C181.772 49.2617 181.919 48.3852 182.215 47.5086C182.51 46.6905 182.923 45.9309 183.455 45.2296C183.927 44.5868 184.488 44.0609 185.138 43.6519C185.787 43.2428 186.496 43.0383 187.264 43.0383ZM187.352 43.3012C186.88 43.3012 186.496 43.4181 186.201 43.6519C185.846 43.8856 185.551 44.207 185.315 44.6161C185.138 44.9667 184.961 45.4049 184.783 45.9309C184.665 46.3984 184.577 46.8658 184.518 47.3333C184.4 47.8593 184.341 48.3852 184.341 48.9111C184.282 49.3786 184.252 49.8169 184.252 50.2259C184.252 50.635 184.282 51.0733 184.341 51.5407C184.341 52.0667 184.37 52.5634 184.429 53.0309C184.547 53.5568 184.665 54.0535 184.783 54.521C184.902 55.0469 185.079 55.4852 185.315 55.8358C185.492 56.2449 185.758 56.5663 186.112 56.8C186.407 56.9753 186.791 57.063 187.264 57.063C187.736 57.063 188.12 56.9461 188.415 56.7123C188.77 56.4786 189.035 56.1864 189.213 55.8358C189.449 55.4268 189.626 54.9885 189.744 54.521C189.862 53.9951 189.951 53.4984 190.01 53.0309C190.069 52.5049 190.098 52.0082 190.098 51.5407C190.098 51.0148 190.098 50.5473 190.098 50.1383C190.098 49.8461 190.098 49.437 190.098 48.9111C190.039 48.4436 189.98 47.9761 189.921 47.5086C189.862 46.9827 189.774 46.486 189.656 46.0185C189.537 45.4926 189.36 45.0251 189.124 44.6161C188.947 44.2654 188.711 43.9733 188.415 43.7395C188.12 43.4473 187.766 43.3012 187.352 43.3012ZM208.612 52.5926V57.1506H198.248V56.8H199.577V43.6519H198.248V43.3012H203.474V43.6519H201.969V56.8H204.449C205.098 56.8 205.659 56.7708 206.132 56.7123C206.604 56.6539 207.018 56.4786 207.372 56.1864C207.667 55.9527 207.904 55.5436 208.081 54.9593C208.258 54.3749 208.346 53.586 208.346 52.5926H208.612ZM213.13 56.8C213.425 56.8 213.661 56.8 213.839 56.8C214.075 56.7416 214.252 56.6539 214.37 56.537C214.488 56.4202 214.577 56.2449 214.636 56.0111C214.754 55.8358 214.872 55.5728 214.99 55.2222C215.581 53.177 216.171 51.1609 216.762 49.1741C217.411 47.1288 218.032 45.0835 218.622 43.0383H219.331L223.848 56.8H224.823V57.1506H219.774V56.8H221.191L219.774 52.6803H216.142L215.965 53.0309C215.906 53.2646 215.846 53.5276 215.787 53.8198C215.669 54.1704 215.551 54.4918 215.433 54.784C215.374 55.1346 215.315 55.4268 215.256 55.6605C215.138 55.9527 215.079 56.128 215.079 56.1864C215.079 56.3617 215.167 56.5078 215.344 56.6247C215.463 56.6831 215.61 56.7416 215.787 56.8C215.965 56.8 216.142 56.8 216.319 56.8C216.496 56.8 216.644 56.8 216.762 56.8H216.85V57.1506H213.13V56.8ZM216.23 52.3296H219.685L217.913 46.8074L216.23 52.3296Z" fill="#FEFEFE"/>
<path d="M106.033 6.74938L101.25 1.9284L86.3681 16.6543L101.25 31.4679L106.033 26.6469L106.742 27.4358L101.25 32.8704C95.7579 27.4942 90.2953 22.0889 84.8622 16.6543L101.25 0.438272L106.831 5.96049L106.033 6.74938ZM112.323 26.9975L116.841 31.4679L131.722 16.742L116.841 2.01605L112.234 6.57408L111.437 5.87284L116.841 0.525927C122.333 5.96049 127.795 11.3658 133.228 16.742L116.841 32.958L111.526 27.6988L112.323 26.9975Z" fill="#FEFEFE"/>
<path fill-rule="evenodd" clip-rule="evenodd" d="M118.701 16.9173L109.134 26.384L99.2126 16.5667L109.134 6.74938L119.055 16.5667L118.701 16.9173ZM109.222 24.8938L116.929 17.1802H110.64V16.1284H117.195L109.222 8.23951L101.161 16.1284H107.539V17.1802H101.427L109.222 24.8938Z" fill="#FEFEFE"/>
<path fill-rule="evenodd" clip-rule="evenodd" d="M6.28936 63.9L8.76967 70.4741H7.79526L6.99802 68.1074H5.22637L4.34054 70.4741H3.45471L5.84644 63.9H6.28936ZM6.64369 67.3185L6.11219 65.7407L5.49211 67.3185H6.64369ZM13.1102 63.9C14.1732 63.9 15.0295 64.2214 15.6791 64.8642C16.3287 65.507 16.6535 66.2667 16.6535 67.1432C16.6535 68.0782 16.3287 68.8671 15.6791 69.5099C15.0295 70.1527 14.1732 70.4741 13.1102 70.4741H12.4901V63.9H13.1102ZM13.376 64.7765V69.5975C14.0256 69.5975 14.5866 69.3638 15.059 68.8963C15.5315 68.4288 15.7677 67.8444 15.7677 67.1432C15.7677 66.5004 15.5315 65.916 15.059 65.3901C14.5866 64.9811 14.0256 64.7765 13.376 64.7765ZM22.4114 70.4741L20.0197 63.9H20.9055L22.5886 68.6333L24.3602 63.9H25.2461L22.8543 70.4741H22.4114ZM32.1555 63.8123C33.1004 63.8123 33.8976 64.1337 34.5472 64.7765C35.1968 65.4778 35.5216 66.2667 35.5216 67.1432C35.5216 68.0782 35.1968 68.8671 34.5472 69.5099C33.8976 70.1527 33.1004 70.4741 32.1555 70.4741C31.2106 70.4741 30.4134 70.1527 29.7638 69.5099C29.1142 68.8671 28.7894 68.0782 28.7894 67.1432C28.7894 66.2667 29.1142 65.4778 29.7638 64.7765C30.4134 64.1337 31.2106 63.8123 32.1555 63.8123ZM32.1555 64.6889C31.4468 64.6889 30.8563 64.9226 30.3838 65.3901C29.8524 65.916 29.5866 66.5004 29.5866 67.1432C29.5866 67.8444 29.8524 68.4288 30.3838 68.8963C30.8563 69.4222 31.4468 69.6852 32.1555 69.6852C32.8642 69.6852 33.4547 69.4222 33.9272 68.8963C34.3996 68.4288 34.6358 67.8444 34.6358 67.1432C34.6358 66.5004 34.3996 65.916 33.9272 65.3901C33.4547 64.9226 32.8642 64.6889 32.1555 64.6889ZM44.7342 68.8963L45.3543 69.4222C44.5866 70.1234 43.7598 70.4741 42.874 70.4741C41.9291 70.4741 41.1319 70.1527 40.4823 69.5099C39.8327 68.8671 39.5079 68.0782 39.5079 67.1432C39.5079 66.2667 39.8327 65.507 40.4823 64.8642C41.1319 64.163 41.9291 63.8123 42.874 63.8123C43.7598 63.8123 44.5866 64.163 45.3543 64.8642L44.7342 65.4778C44.1437 64.9518 43.5236 64.6889 42.874 64.6889C42.1653 64.6889 41.5748 64.9226 41.1024 65.3901C40.6299 65.916 40.3937 66.5004 40.3937 67.1432C40.3937 67.8444 40.6299 68.4288 41.1024 68.8963C41.5748 69.4222 42.1653 69.6852 42.874 69.6852C43.5236 69.6852 44.1437 69.4222 44.7342 68.8963ZM51.6437 63.9L54.0354 70.4741H53.1496L52.2638 68.1074H50.4921L49.6949 70.4741H48.7205L51.1122 63.9H51.6437ZM51.998 67.3185L51.4665 65.7407L50.935 67.3185H51.998ZM62.7165 68.8963L63.3366 69.4222C62.5689 70.1234 61.7421 70.4741 60.8563 70.4741C59.9705 70.4741 59.2027 70.1527 58.5531 69.5099C57.9035 68.8671 57.5787 68.0782 57.5787 67.1432C57.5787 66.2667 57.9035 65.507 58.5531 64.8642C59.2027 64.163 59.9705 63.8123 60.8563 63.8123C61.7421 63.8123 62.5689 64.163 63.3366 64.8642L62.7165 65.4778C62.126 64.9518 61.5059 64.6889 60.8563 64.6889C60.2067 64.6889 59.6457 64.9226 59.1732 65.3901C58.6417 65.916 58.376 66.5004 58.376 67.1432C58.376 67.8444 58.6417 68.4288 59.1732 68.8963C59.6457 69.4222 60.2067 69.6852 60.8563 69.6852C61.5059 69.6852 62.126 69.4222 62.7165 68.8963ZM68.2972 63.9V70.4741H67.4114V63.9H68.2972ZM75.0295 63.9L77.4212 70.4741H76.5354L75.7382 68.1074H73.9665L73.0807 70.4741H72.1949L74.5866 63.9H75.0295ZM75.3839 67.3185L74.7638 65.7407L74.2323 67.3185H75.3839ZM89.2913 68.8963L89.9114 69.4222C89.1437 70.1234 88.3169 70.4741 87.4311 70.4741C86.4862 70.4741 85.689 70.1527 85.0394 69.5099C84.3898 68.8671 84.065 68.0782 84.065 67.1432C84.065 66.2667 84.3898 65.507 85.0394 64.8642C85.689 64.163 86.4862 63.8123 87.4311 63.8123C88.3169 63.8123 89.1437 64.163 89.9114 64.8642L89.2913 65.4778C88.7008 64.9518 88.0807 64.6889 87.4311 64.6889C86.7224 64.6889 86.1319 64.9226 85.6594 65.3901C85.187 65.916 84.9508 66.5004 84.9508 67.1432C84.9508 67.8444 85.187 68.4288 85.6594 68.8963C86.1319 69.4222 86.7224 69.6852 87.4311 69.6852C88.0807 69.6852 88.7008 69.4222 89.2913 68.8963ZM94.7835 63.9V70.4741H93.9862V63.9H94.7835ZM94.6063 62.4099H95.5807L94.5177 63.5494H93.7205L94.6063 62.4099ZM100.984 70.4741L98.5925 63.9H99.5669L101.25 68.6333L102.933 63.9H103.907L101.516 70.4741H100.984ZM108.514 63.9V70.4741H107.717V63.9H108.514ZM112.766 70.4741V63.9H113.563V69.5975H115.955V70.4741H112.766ZM129.331 63.9V64.7765H126.585V66.7926H129.331V67.5815H126.585V69.5975H129.331V70.4741H125.787V63.9H129.331ZM142.795 63.9V64.7765H140.049V66.7926H142.795V67.5815H140.049V69.5975H142.795V70.4741H139.252V63.9H142.795ZM147.844 63.9L149.97 67.5815L152.096 63.9H152.894V70.4741H152.008V65.7407L149.97 69.2469L147.933 65.7407V70.4741H147.047V63.9H147.844ZM158.12 68.3704V70.4741H157.323V63.9H159.183C159.715 63.9584 160.157 64.1922 160.512 64.6012C160.925 65.0103 161.132 65.507 161.132 66.0914C161.132 66.7341 160.925 67.2601 160.512 67.6691C160.098 68.1366 159.567 68.3704 158.917 68.3704H158.12ZM158.12 64.7765V67.4938H158.917C159.272 67.4938 159.596 67.3769 159.892 67.1432C160.187 66.851 160.335 66.5004 160.335 66.0914C160.335 65.7407 160.187 65.4193 159.892 65.1272C159.596 64.8934 159.272 64.7765 158.917 64.7765H158.12ZM166.535 68.3704H165.827V70.4741H164.941V63.9H166.801C167.333 63.9584 167.776 64.1922 168.13 64.6012C168.602 65.0103 168.839 65.507 168.839 66.0914C168.839 66.7341 168.602 67.2601 168.13 67.6691C167.835 68.0197 167.598 68.1951 167.421 68.1951L168.927 70.4741H167.864L166.535 68.3704ZM165.738 64.7765V67.4938H166.535C166.949 67.4938 167.274 67.3477 167.51 67.0555C167.805 66.8218 167.953 66.5004 167.953 66.0914C167.953 65.7407 167.805 65.4193 167.51 65.1272C167.274 64.8934 166.949 64.7765 166.535 64.7765H165.738ZM176.28 63.9V64.7765H173.533V66.7049H176.28V67.5815H173.533V69.5975H176.28V70.3864H172.736V63.9H176.28ZM182.037 67.0555C181.565 66.9387 181.181 66.7342 180.886 66.442C180.591 66.1498 180.443 65.7992 180.443 65.3901C180.443 64.9226 180.591 64.5428 180.886 64.2506C181.181 63.9584 181.535 63.8123 181.949 63.8123C182.421 63.8123 182.805 63.9584 183.1 64.2506C183.278 64.4259 183.396 64.6889 183.455 65.0395L182.746 65.3901C182.628 65.0979 182.539 64.9226 182.48 64.8642C182.362 64.7473 182.185 64.6889 181.949 64.6889C181.772 64.6889 181.624 64.7473 181.506 64.8642C181.388 64.9811 181.329 65.1564 181.329 65.3901C181.329 65.5654 181.388 65.7115 181.506 65.8284C181.624 66.0037 181.831 66.1498 182.126 66.2667C182.657 66.442 183.1 66.7049 183.455 67.0555C183.868 67.4062 184.075 67.8737 184.075 68.458C184.075 69.0424 183.868 69.5099 183.455 69.8605C183.041 70.2695 182.539 70.4741 181.949 70.4741C181.417 70.4741 180.945 70.2695 180.532 69.8605C180.236 69.5683 180.03 69.13 179.911 68.5457L180.709 68.2827C180.768 68.7502 180.915 69.1008 181.152 69.3346C181.388 69.5683 181.654 69.6852 181.949 69.6852C182.303 69.6852 182.598 69.5683 182.835 69.3346C183.071 69.1008 183.189 68.8086 183.189 68.458C183.189 68.1074 183.071 67.8152 182.835 67.5815C182.598 67.4062 182.333 67.2309 182.037 67.0555ZM190.276 63.9L192.667 70.3864H191.781L190.896 68.1074H189.124L188.327 70.3864H187.441L189.833 63.9H190.276ZM190.541 67.2309L190.01 65.7407L189.478 67.2309H190.541ZM197.982 68.3704H197.185V70.3864H196.388V63.9H198.248C198.78 63.9584 199.222 64.163 199.577 64.5136C199.99 64.9811 200.197 65.507 200.197 66.0914C200.197 66.7341 199.99 67.2601 199.577 67.6691C199.282 67.9613 199.045 68.1366 198.868 68.1951L200.374 70.3864H199.311L197.982 68.3704ZM197.185 64.8642V67.5815H197.982C198.337 67.5815 198.661 67.4354 198.957 67.1432C199.252 66.9095 199.4 66.5881 199.4 66.179C199.4 65.8284 199.252 65.507 198.957 65.2148C198.661 64.9811 198.337 64.8642 197.982 64.8642H197.185ZM205.069 63.9876V70.4741H204.183V63.9876H205.069ZM211.801 63.9876L214.193 70.4741H213.307L212.421 68.1951H210.738L209.852 70.4741H208.967L211.358 63.9876H211.801ZM212.156 67.3185L211.535 65.8284L211.004 67.3185H212.156ZM218.002 70.4741V63.9876H218.888V69.6852H221.191V70.4741H218.002Z" fill="#D3CAB7"/>
</g>
</g>
<defs>
<clipPath id="clip0_90_18">
<rect width="225" height="71" fill="white"/>
</clipPath>
</defs>
</svg>
