<svg width="243" height="77" viewBox="0 0 243 77" fill="none" xmlns="http://www.w3.org/2000/svg">
<path fill-rule="evenodd" clip-rule="evenodd" d="M10.0453 39.1641C10.0453 39.0373 10.0453 38.9106 10.0453 38.7838C10.0453 38.5937 10.0134 38.4353 9.94961 38.3085C9.88583 38.1818 9.82205 38.0867 9.75827 38.0233C9.69449 37.8966 9.59882 37.8332 9.47126 37.8332C9.3437 37.8332 9.21614 37.8966 9.08858 38.0233C8.96102 38.0867 8.83346 38.1818 8.7059 38.3085C8.38701 38.562 7.97244 38.8155 7.4622 39.069C7.01575 39.3225 6.47362 39.4493 5.83583 39.4493C4.94291 39.4493 4.11378 39.2591 3.34843 38.8789C2.64685 38.4353 2.04094 37.8966 1.53071 37.2628C1.02047 36.5657 0.637795 35.7418 0.382677 34.7912C0.127559 33.904 0 32.9534 0 31.9394C0 30.9254 0.127559 29.9114 0.382677 28.8974C0.637795 27.9468 1.02047 27.0912 1.53071 26.3307C2.04094 25.5702 2.64685 24.9682 3.34843 24.5246C4.11378 24.0809 4.94291 23.8591 5.83583 23.8591C6.28228 23.8591 6.66496 23.9225 6.98386 24.0493C7.30276 24.176 7.58976 24.3344 7.84488 24.5246C8.1 24.6513 8.35512 24.7781 8.61024 24.9048C8.86535 25.0316 9.12047 25.0949 9.37559 25.0949C9.56693 25.0949 9.72638 25.0632 9.85394 24.9999C9.91772 24.8731 9.94961 24.7147 9.94961 24.5246H10.428V29.0875H9.94961C9.94961 28.5172 9.82205 27.9468 9.56693 27.3764C9.37559 26.8694 9.12047 26.3941 8.80157 25.9505C8.48268 25.5069 8.1 25.1266 7.65354 24.8097C7.27087 24.5563 6.82441 24.4295 6.31417 24.4295C5.80394 24.4295 5.38937 24.5563 5.07047 24.8097C4.6878 25.0632 4.40079 25.4118 4.20945 25.8554C3.95433 26.2357 3.76299 26.711 3.63543 27.2814C3.44409 27.7883 3.31654 28.327 3.25276 28.8974C3.18898 29.4678 3.1252 30.0065 3.06142 30.5135C3.06142 31.0204 3.06142 31.4958 3.06142 31.9394C3.06142 32.6999 3.09331 33.4921 3.15709 34.3159C3.28465 35.0764 3.47598 35.7735 3.7311 36.4073C3.98622 37.1044 4.3689 37.6431 4.87913 38.0233C5.38937 38.467 6.05906 38.6888 6.88819 38.6888C7.33465 38.6888 7.74921 38.5303 8.13189 38.2134C8.45079 37.8966 8.73779 37.4846 8.99291 36.9776C9.31181 36.4707 9.56693 35.932 9.75827 35.3616C9.88583 34.7912 9.9815 34.2842 10.0453 33.8406H10.428V39.1641H10.0453ZM15.9768 38.7838C16.2957 38.7838 16.5827 38.7521 16.8378 38.6888C17.0291 38.6888 17.1886 38.6254 17.3161 38.4986C17.4437 38.3719 17.5713 38.1818 17.6988 37.9283C17.7626 37.7381 17.8583 37.453 17.9858 37.0727C18.6236 34.8546 19.2933 32.6682 19.9949 30.5135C20.6327 28.2953 21.3024 26.0772 22.0039 23.8591H22.7693L27.5528 38.7838H28.6051V39.1641H23.152V38.7838H24.6827L23.2476 34.2209H19.2295L19.1339 34.6962C19.0063 34.9497 18.9106 35.2348 18.8468 35.5517C18.7193 35.932 18.6236 36.2805 18.5598 36.5974C18.4323 36.9777 18.3366 37.2945 18.2728 37.548C18.2091 37.8649 18.1772 38.055 18.1772 38.1184C18.1772 38.3085 18.2409 38.4669 18.3685 38.5937C18.4961 38.6571 18.6555 38.7204 18.8468 38.7838C19.0382 38.7838 19.2614 38.7838 19.5165 38.7838C19.7079 38.7838 19.8673 38.7838 19.9949 38.7838V39.1641H15.9768V38.7838ZM19.4209 33.8406H23.152L21.2386 27.9468L19.4209 33.8406ZM37.2154 38.7838H38.6504V39.1641H33.4842V38.7838H34.728V24.4295H33.4842V24.0493H40.0854C40.5319 24.0493 41.0102 24.1126 41.5205 24.2394C42.0307 24.3661 42.4453 24.5879 42.7642 24.9048C43.1469 25.1583 43.4657 25.5069 43.7209 25.9505C43.976 26.3941 44.1035 26.9645 44.1035 27.6616C44.1035 28.232 44.0079 28.7073 43.8165 29.0875C43.689 29.4678 43.4657 29.7846 43.1469 30.0381C42.8917 30.355 42.5728 30.6085 42.1902 30.7986C41.8713 30.9888 41.4886 31.1155 41.0421 31.1789V31.4641C41.6799 31.5908 42.1902 31.8443 42.5728 32.2246C42.8917 32.6048 43.1469 33.0167 43.3382 33.4604C43.5295 33.9674 43.6571 34.4744 43.7209 34.9814C43.7846 35.4883 43.8165 35.9637 43.8165 36.4073C43.8165 36.7875 43.8165 37.1044 43.8165 37.3579C43.8803 37.6748 43.9441 37.9283 44.0079 38.1184C44.0717 38.3719 44.1673 38.562 44.2949 38.6888C44.3587 38.8155 44.5181 38.8789 44.7732 38.8789C44.9008 38.8789 45.0283 38.8472 45.1559 38.7838C45.2835 38.7838 45.411 38.7521 45.5386 38.6888L45.7299 38.9739C45.4748 39.1007 45.2197 39.1958 44.9646 39.2591C44.7094 39.3225 44.4543 39.3542 44.1992 39.3542C43.4976 39.3542 42.9555 39.2591 42.5728 39.069C42.1902 38.8155 41.9031 38.5303 41.7118 38.2134C41.5205 37.8966 41.3929 37.4846 41.3291 36.9776C41.2654 36.4707 41.2016 35.932 41.1378 35.3616C41.1378 35.1715 41.1378 34.9814 41.1378 34.7912C41.074 34.6011 41.0421 34.411 41.0421 34.2209C40.9783 33.5237 40.8189 33.0167 40.5638 32.6999C40.3087 32.3196 40.0217 32.0344 39.7028 31.8443C39.3839 31.7176 39.0012 31.6225 38.5547 31.5591C38.1083 31.4958 37.6618 31.4641 37.2154 31.4641V38.7838ZM37.2154 24.5246V31.1789H37.9807C38.3634 31.1789 38.778 31.1155 39.2244 30.9888C39.6071 30.862 39.9579 30.6719 40.2768 30.4184C40.5957 30.1649 40.8827 29.8163 41.1378 29.3727C41.3291 28.9925 41.4248 28.4855 41.4248 27.8517C41.4248 27.1546 41.3291 26.6159 41.1378 26.2357C40.9465 25.7921 40.6913 25.4435 40.3724 25.19C40.0535 24.9365 39.6709 24.7464 39.2244 24.6196C38.8417 24.5562 38.3953 24.5246 37.885 24.5246H37.2154ZM62.472 34.2209V39.1641H51.2787V38.7838H52.7138V24.5246H51.2787V24.1443H56.8276V24.5246H55.2969V38.7838H57.9756C58.6772 38.7838 59.2831 38.7521 59.7933 38.6888C60.3035 38.6254 60.7181 38.4353 61.037 38.1184C61.4197 37.8649 61.7067 37.4213 61.898 36.7875C62.0256 36.1538 62.0894 35.2982 62.0894 34.2209H62.472ZM67.4468 38.7838C67.7657 38.7838 68.0209 38.7838 68.2122 38.7838C68.4035 38.7204 68.5949 38.6254 68.7862 38.4986C68.9138 38.3719 69.0095 38.1818 69.0732 37.9283C69.2008 37.7381 69.3283 37.453 69.4559 37.0727C70.0937 34.8546 70.7315 32.6682 71.3693 30.5135C72.0709 28.2953 72.7406 26.0772 73.3783 23.8591H74.1437L79.0228 38.7838H79.9795V39.1641H74.622V38.7838H76.0571L74.622 34.3159H70.6996L70.5083 34.6962C70.4445 34.9497 70.3488 35.2348 70.2213 35.5517C70.1575 35.932 70.0618 36.2805 69.9342 36.5974C69.8705 36.9777 69.7748 37.2945 69.6472 37.548C69.5835 37.8649 69.5516 38.055 69.5516 38.1184C69.5516 38.3085 69.6154 38.4669 69.7429 38.5937C69.9342 38.6571 70.1256 38.7204 70.3169 38.7838C70.5083 38.7838 70.6996 38.7838 70.8909 38.7838C71.0823 38.7838 71.2417 38.7838 71.3693 38.7838H71.465V39.1641H67.4468V38.7838ZM70.7953 33.9357H74.5264L72.613 27.9468L70.7953 33.9357ZM102.079 38.7838H104.28C104.981 38.7838 105.651 38.7838 106.289 38.7838C106.863 38.7204 107.373 38.562 107.819 38.3085C108.266 38.055 108.617 37.6748 108.872 37.1678C109.127 36.5974 109.254 35.8052 109.254 34.7912H109.637V39.2591H98.1567V38.8789H99.3047V24.5246H98.1567V24.1443H109.637V27.8517H109.254C109.127 27.0279 108.904 26.3941 108.585 25.9505C108.266 25.5069 107.883 25.19 107.437 24.9999C106.99 24.8097 106.48 24.7147 105.906 24.7147C105.332 24.6513 104.726 24.6196 104.088 24.6196H102.079V31.2739H102.653C103.163 31.2739 103.578 31.2739 103.897 31.2739C104.28 31.2106 104.598 31.1155 104.854 30.9888C105.045 30.7986 105.204 30.5451 105.332 30.2283C105.459 29.848 105.555 29.341 105.619 28.7073H105.906V34.411H105.619C105.555 33.8406 105.491 33.397 105.428 33.0801C105.3 32.6999 105.141 32.4147 104.949 32.2246C104.758 32.0978 104.535 32.0028 104.28 31.9394C104.024 31.876 103.737 31.8443 103.418 31.8443H102.079V38.7838ZM115.951 33.8406H116.334C116.398 34.6011 116.525 35.2982 116.717 35.932C116.908 36.5657 117.163 37.1044 117.482 37.548C117.801 37.9916 118.215 38.3402 118.726 38.5937C119.3 38.8472 119.937 38.9739 120.639 38.9739C121.085 38.9739 121.468 38.9106 121.787 38.7838C122.17 38.6571 122.489 38.4669 122.744 38.2134C122.935 37.96 123.094 37.6748 123.222 37.3579C123.286 36.9776 123.254 36.5974 123.126 36.2172C122.999 35.7735 122.712 35.425 122.265 35.1715C121.819 34.8546 121.277 34.5694 120.639 34.3159C120.129 34.0624 119.587 33.7772 119.013 33.4604C118.439 33.2069 117.928 32.8583 117.482 32.4147C117.035 31.9711 116.653 31.4641 116.334 30.8937C116.015 30.26 115.856 29.4995 115.856 28.6122C115.856 28.4855 115.856 28.3587 115.856 28.232C115.919 28.0418 115.951 27.8834 115.951 27.7567C116.143 26.4892 116.557 25.5702 117.195 24.9999C117.896 24.3661 118.789 24.0176 119.874 23.9542C120.511 23.9542 121.054 24.0809 121.5 24.3344C121.946 24.5246 122.297 24.7147 122.552 24.9048C122.807 25.0949 123.031 25.19 123.222 25.19C123.413 25.19 123.541 25.0949 123.605 24.9048C123.605 24.7147 123.605 24.5246 123.605 24.3344H123.987V28.8974H123.605C123.477 28.2003 123.35 27.5982 123.222 27.0912C123.031 26.5209 122.776 26.0456 122.457 25.6653C122.202 25.2851 121.851 24.9999 121.404 24.8097C120.958 24.5563 120.448 24.4295 119.874 24.4295C119.491 24.4295 119.108 24.4929 118.726 24.6196C118.343 24.7464 118.024 24.9048 117.769 25.0949C117.514 25.2851 117.322 25.5702 117.195 25.9505C117.004 26.2674 116.94 26.6793 117.004 27.1863C117.004 27.5665 117.099 27.9151 117.291 28.232C117.482 28.5488 117.737 28.8023 118.056 28.9925C118.311 29.246 118.63 29.4361 119.013 29.5628C119.395 29.753 119.778 29.9114 120.161 30.0381C120.671 30.2283 121.181 30.4501 121.691 30.7036C122.202 30.9571 122.648 31.2739 123.031 31.6542C123.477 32.0344 123.86 32.4781 124.179 32.9851C124.434 33.5554 124.625 34.1892 124.753 34.8863C124.753 35.5834 124.657 36.2172 124.466 36.7875C124.274 37.3579 123.987 37.8649 123.605 38.3085C123.222 38.6888 122.776 38.9739 122.265 39.1641C121.755 39.4176 121.181 39.5443 120.543 39.5443C119.969 39.5443 119.459 39.4493 119.013 39.2591C118.502 39.069 118.088 38.9106 117.769 38.7838C117.578 38.6571 117.418 38.562 117.291 38.4986C117.099 38.4353 116.94 38.4036 116.812 38.4036C116.621 38.4036 116.493 38.5303 116.43 38.7838C116.366 39.0373 116.334 39.2274 116.334 39.3542H115.951V33.8406ZM134.702 38.8789H136.137V39.2591H130.684V38.8789H132.024V24.5246H130.684V24.1443H136.042C136.616 24.1443 137.222 24.2077 137.859 24.3344C138.497 24.4612 139.071 24.683 139.581 24.9999C140.092 25.2534 140.538 25.6653 140.921 26.2357C141.24 26.7427 141.399 27.4398 141.399 28.327C141.399 29.0875 141.272 29.753 141.017 30.3233C140.698 30.8937 140.283 31.3373 139.773 31.6542C139.326 31.9711 138.816 32.2246 138.242 32.4147C137.604 32.5414 137.03 32.6048 136.52 32.6048C136.201 32.6048 135.882 32.6048 135.563 32.6048C135.308 32.5414 135.021 32.4147 134.702 32.2246V38.8789ZM134.702 31.7493C135.085 32.0028 135.563 32.1295 136.137 32.1295C136.52 32.1295 136.903 32.0661 137.285 31.9394C137.668 31.7493 137.987 31.4958 138.242 31.1789C138.497 30.7986 138.689 30.3867 138.816 29.9431C138.944 29.5628 139.007 29.0875 139.007 28.5172C139.007 27.82 138.912 27.218 138.72 26.711C138.593 26.204 138.338 25.7604 137.955 25.3801C137.636 25.0632 137.254 24.8414 136.807 24.7147C136.361 24.5879 135.85 24.5246 135.276 24.5246C135.213 24.5246 135.149 24.5246 135.085 24.5246C134.957 24.5246 134.83 24.5246 134.702 24.5246V31.7493ZM147.139 24.2394H152.784V24.6196H151.157V38.8789H152.784V39.2591H147.139V38.8789H148.574V24.6196H147.139V24.2394ZM158.428 38.8789C158.875 38.8789 159.226 38.8789 159.481 38.8789C159.736 38.8789 159.927 38.8155 160.055 38.6888C160.182 38.562 160.246 38.3402 160.246 38.0233C160.31 37.7698 160.342 37.3896 160.342 36.8826V24.9048L160.055 24.6196H158.428V24.2394H163.02L169.622 34.9814V26.4258C169.622 25.9822 169.622 25.6336 169.622 25.3801C169.558 25.1266 169.494 24.9365 169.43 24.8097C169.303 24.683 169.175 24.6196 169.048 24.6196C168.856 24.6196 168.601 24.6196 168.282 24.6196H167.804V24.2394H171.918V24.6196H171.344C171.089 24.6196 170.865 24.6196 170.674 24.6196C170.483 24.6196 170.355 24.683 170.291 24.8097C170.164 24.9365 170.1 25.1266 170.1 25.3801C170.036 25.6336 170.004 25.9822 170.004 26.4258V39.4493H168.952L160.724 25.9505V36.5023C160.724 37.1361 160.724 37.6114 160.724 37.9283C160.788 38.2451 160.852 38.4669 160.916 38.5937C161.043 38.7838 161.235 38.8789 161.49 38.8789C161.745 38.8789 162.128 38.8789 162.638 38.8789V39.2591H158.428V38.8789ZM177.371 24.2394H182.059C183.143 24.2394 184.163 24.3661 185.12 24.6196C186.077 24.8097 186.906 25.19 187.607 25.7604C188.309 26.3941 188.883 27.1863 189.33 28.1369C189.776 29.1509 189.999 30.3867 189.999 31.8443C189.999 33.2386 189.776 34.411 189.33 35.3616C188.947 36.3122 188.405 37.0727 187.703 37.6431C187.065 38.2768 186.268 38.6888 185.311 38.8789C184.418 39.1324 183.43 39.2591 182.346 39.2591H177.371V38.8789H178.71V24.6196H177.371V24.2394ZM181.389 24.6196V38.9739C182.473 38.9739 183.366 38.8155 184.068 38.4986C184.833 38.1818 185.439 37.7381 185.885 37.1678C186.332 36.534 186.651 35.7735 186.842 34.8863C187.097 33.999 187.225 32.9217 187.225 31.6542C187.225 30.6402 187.097 29.7213 186.842 28.8974C186.651 28.0102 186.332 27.2497 185.885 26.6159C185.439 25.9822 184.897 25.5069 184.259 25.19C183.621 24.8097 182.856 24.6196 181.963 24.6196H181.389ZM202.149 23.9542C203.042 23.9542 203.839 24.176 204.541 24.6196C205.242 25.0632 205.88 25.6653 206.454 26.4258C206.965 27.1863 207.347 28.0418 207.602 28.9925C207.921 29.8797 208.081 30.7986 208.081 31.7493C208.081 32.7632 207.921 33.7139 207.602 34.6011C207.347 35.5517 206.965 36.3756 206.454 37.0727C205.88 37.8332 205.242 38.4353 204.541 38.8789C203.839 39.3225 203.042 39.5443 202.149 39.5443C201.256 39.5443 200.459 39.3225 199.757 38.8789C199.056 38.4353 198.45 37.8332 197.94 37.0727C197.366 36.3122 196.951 35.4567 196.696 34.506C196.377 33.5554 196.218 32.6048 196.218 31.6542C196.218 30.7036 196.377 29.753 196.696 28.8023C197.015 27.9151 197.461 27.0912 198.035 26.3307C198.546 25.6336 199.152 25.0632 199.853 24.6196C200.555 24.176 201.32 23.9542 202.149 23.9542ZM202.245 24.2394C201.735 24.2394 201.32 24.3661 201.001 24.6196C200.618 24.8731 200.3 25.2217 200.044 25.6653C199.853 26.0456 199.662 26.5209 199.47 27.0912C199.343 27.5982 199.247 28.1052 199.183 28.6122C199.056 29.1826 198.992 29.753 198.992 30.3233C198.928 30.8303 198.896 31.3056 198.896 31.7493C198.896 32.1929 198.928 32.6682 198.992 33.1752C198.992 33.7455 199.024 34.2842 199.088 34.7912C199.215 35.3616 199.343 35.9003 199.47 36.4073C199.598 36.9776 199.789 37.453 200.044 37.8332C200.236 38.2768 200.523 38.6254 200.906 38.8789C201.224 39.069 201.639 39.1641 202.149 39.1641C202.659 39.1641 203.074 39.0373 203.393 38.7838C203.776 38.5303 204.063 38.2135 204.254 37.8332C204.509 37.3896 204.7 36.9143 204.828 36.4073C204.955 35.8369 205.051 35.2982 205.115 34.7912C205.179 34.2209 205.211 33.6822 205.211 33.1752C205.211 32.6048 205.211 32.0978 205.211 31.6542C205.211 31.3373 205.211 30.8937 205.211 30.3233C205.147 29.8163 205.083 29.3093 205.019 28.8023C204.955 28.232 204.86 27.6933 204.732 27.1863C204.605 26.6159 204.413 26.1089 204.158 25.6653C203.967 25.2851 203.712 24.9682 203.393 24.7147C203.074 24.3978 202.691 24.2394 202.245 24.2394ZM225.205 34.3159V39.2591H214.012V38.8789H215.447V24.6196H214.012V24.2394H219.657V24.6196H218.03V38.8789H220.709C221.411 38.8789 222.017 38.8472 222.527 38.7838C223.037 38.7204 223.483 38.5303 223.866 38.2134C224.185 37.96 224.44 37.5163 224.631 36.8826C224.823 36.2488 224.918 35.3933 224.918 34.3159H225.205ZM230.085 38.8789C230.404 38.8789 230.659 38.8789 230.85 38.8789C231.105 38.8155 231.296 38.7204 231.424 38.5937C231.552 38.4669 231.647 38.2768 231.711 38.0233C231.839 37.8332 231.966 37.548 232.094 37.1678C232.731 34.9497 233.369 32.7632 234.007 30.6085C234.709 28.3904 235.378 26.1723 236.016 23.9542H236.781L241.661 38.8789H242.713V39.2591H237.26V38.8789H238.791L237.26 34.411H233.337L233.146 34.7912C233.082 35.0447 233.018 35.3299 232.955 35.6468C232.827 36.027 232.7 36.3756 232.572 36.6925C232.508 37.0727 232.444 37.3896 232.381 37.6431C232.253 37.96 232.189 38.1501 232.189 38.2134C232.189 38.4036 232.285 38.562 232.476 38.6888C232.604 38.7521 232.763 38.8155 232.955 38.8789C233.146 38.8789 233.337 38.8789 233.529 38.8789C233.72 38.8789 233.88 38.8789 234.007 38.8789H234.103V39.2591H230.085V38.8789ZM233.433 34.0307H237.164L235.251 28.0418L233.433 34.0307Z" fill="#FEFEFE"/>
<path fill-rule="evenodd" clip-rule="evenodd" d="M6.69685 46.5789L9.3756 53.7086H8.32323L7.46221 51.1419H5.54882L4.59213 53.7086H3.63544L6.21851 46.5789H6.69685ZM7.07953 50.2864L6.50552 48.5752L5.83583 50.2864H7.07953ZM14.0634 46.5789C15.2114 46.5789 16.1362 46.9275 16.8378 47.6246C17.5394 48.3217 17.8902 49.1456 17.8902 50.0962C17.8902 51.1102 17.5394 51.9658 16.8378 52.6629C16.1362 53.36 15.2114 53.7086 14.0634 53.7086H13.3937V46.5789H14.0634ZM14.3504 47.5296V52.758C15.052 52.758 15.6579 52.5045 16.1681 51.9975C16.6784 51.4905 16.9335 50.8567 16.9335 50.0962C16.9335 49.3991 16.6784 48.7654 16.1681 48.195C15.6579 47.7514 15.052 47.5296 14.3504 47.5296ZM24.1087 53.7086L21.5256 46.5789H22.4823L24.3 51.7123L26.2134 46.5789H27.1701L24.587 53.7086H24.1087ZM34.6323 46.4839C35.6528 46.4839 36.5138 46.8324 37.2154 47.5296C37.9169 48.2901 38.2677 49.1456 38.2677 50.0962C38.2677 51.1102 37.9169 51.9658 37.2154 52.6629C36.5138 53.36 35.6528 53.7086 34.6323 53.7086C33.6118 53.7086 32.7508 53.36 32.0492 52.6629C31.3476 51.9658 30.9969 51.1102 30.9969 50.0962C30.9969 49.1456 31.3476 48.2901 32.0492 47.5296C32.7508 46.8324 33.6118 46.4839 34.6323 46.4839ZM34.6323 47.4345C33.8669 47.4345 33.2291 47.688 32.7189 48.195C32.1449 48.7654 31.8579 49.3991 31.8579 50.0962C31.8579 50.8567 32.1449 51.4905 32.7189 51.9975C33.2291 52.5678 33.8669 52.853 34.6323 52.853C35.3976 52.853 36.0354 52.5678 36.5457 51.9975C37.0559 51.4905 37.311 50.8567 37.311 50.0962C37.311 49.3991 37.0559 48.7654 36.5457 48.195C36.0354 47.688 35.3976 47.4345 34.6323 47.4345ZM48.2173 51.9975L48.887 52.5678C48.0579 53.3283 47.165 53.7086 46.2083 53.7086C45.1878 53.7086 44.3268 53.36 43.6252 52.6629C42.9236 51.9658 42.5728 51.1102 42.5728 50.0962C42.5728 49.1456 42.9236 48.3217 43.6252 47.6246C44.3268 46.8641 45.1878 46.4839 46.2083 46.4839C47.165 46.4839 48.0579 46.8641 48.887 47.6246L48.2173 48.2901C47.5795 47.7197 46.9099 47.4345 46.2083 47.4345C45.4429 47.4345 44.8051 47.688 44.2949 48.195C43.7847 48.7654 43.5295 49.3991 43.5295 50.0962C43.5295 50.8567 43.7847 51.4905 44.2949 51.9975C44.8051 52.5678 45.4429 52.853 46.2083 52.853C46.9099 52.853 47.5795 52.5678 48.2173 51.9975ZM55.6795 46.5789L58.2626 53.7086H57.3059L56.3492 51.1419H54.4358L53.5748 53.7086H52.5224L55.1055 46.5789H55.6795ZM56.0622 50.2864L55.4882 48.5752L54.9142 50.2864H56.0622ZM67.6382 51.9975L68.3079 52.5678C67.4788 53.3283 66.5858 53.7086 65.6291 53.7086C64.6725 53.7086 63.8433 53.36 63.1417 52.6629C62.4402 51.9658 62.0894 51.1102 62.0894 50.0962C62.0894 49.1456 62.4402 48.3217 63.1417 47.6246C63.8433 46.8641 64.6725 46.4839 65.6291 46.4839C66.5858 46.4839 67.4788 46.8641 68.3079 47.6246L67.6382 48.2901C67.0004 47.7197 66.3307 47.4345 65.6291 47.4345C64.9276 47.4345 64.3217 47.688 63.8114 48.195C63.2374 48.7654 62.9504 49.3991 62.9504 50.0962C62.9504 50.8567 63.2374 51.4905 63.8114 51.9975C64.3217 52.5678 64.9276 52.853 65.6291 52.853C66.3307 52.853 67.0004 52.5678 67.6382 51.9975ZM73.6654 46.5789V53.7086H72.7087V46.5789H73.6654ZM80.9362 46.5789L83.5193 53.7086H82.5626L81.7016 51.1419H79.7882L78.8315 53.7086H77.8748L80.4579 46.5789H80.9362ZM81.3189 50.2864L80.6492 48.5752L80.0752 50.2864H81.3189ZM96.339 51.9975L97.0087 52.5678C96.1795 53.3283 95.2866 53.7086 94.3299 53.7086C93.3095 53.7086 92.4484 53.36 91.7469 52.6629C91.0453 51.9658 90.6945 51.1102 90.6945 50.0962C90.6945 49.1456 91.0453 48.3217 91.7469 47.6246C92.4484 46.8641 93.3095 46.4839 94.3299 46.4839C95.2866 46.4839 96.1795 46.8641 97.0087 47.6246L96.339 48.2901C95.7012 47.7197 95.0315 47.4345 94.3299 47.4345C93.5646 47.4345 92.9268 47.688 92.4165 48.195C91.9063 48.7654 91.6512 49.3991 91.6512 50.0962C91.6512 50.8567 91.9063 51.4905 92.4165 51.9975C92.9268 52.5678 93.5646 52.853 94.3299 52.853C95.0315 52.853 95.7012 52.5678 96.339 51.9975ZM102.27 46.5789V53.7086H101.409V46.5789H102.27ZM102.079 44.9629H103.132L101.983 46.1987H101.122L102.079 44.9629ZM108.967 53.7086L106.384 46.5789H107.437L109.254 51.7123L111.072 46.5789H112.124L109.541 53.7086H108.967ZM117.099 46.5789V53.7086H116.238V46.5789H117.099ZM121.691 53.7086V46.5789H122.552V52.758H125.135V53.7086H121.691ZM139.582 46.5789V47.5296H136.616V49.716H139.582V50.5715H136.616V52.758H139.582V53.7086H135.755V46.5789H139.582ZM154.123 46.5789V47.5296H151.158V49.716H154.123V50.5715H151.158V52.758H154.123V53.7086H150.296V46.5789H154.123ZM159.576 46.5789L161.872 50.5715L164.169 46.5789H165.03V53.7086H164.073V48.5752L161.872 52.3777L159.672 48.5752V53.7086H158.715V46.5789H159.576ZM170.674 51.4271V53.7086H169.813V46.5789H171.822C172.396 46.6423 172.874 46.8958 173.257 47.3394C173.704 47.7831 173.927 48.3217 173.927 48.9555C173.927 49.6526 173.704 50.223 173.257 50.6666C172.811 51.1736 172.237 51.4271 171.535 51.4271H170.674ZM170.674 47.5296V50.4765H171.535C171.918 50.4765 172.269 50.3497 172.587 50.0962C172.906 49.7794 173.066 49.3991 173.066 48.9555C173.066 48.5752 172.906 48.2267 172.587 47.9098C172.269 47.6563 171.918 47.5296 171.535 47.5296H170.674ZM179.763 51.4271H178.997V53.7086H178.041V46.5789H180.05C180.624 46.6423 181.102 46.8958 181.485 47.3394C181.995 47.7831 182.25 48.3217 182.25 48.9555C182.25 49.6526 181.995 50.223 181.485 50.6666C181.166 51.0468 180.911 51.237 180.719 51.237L182.346 53.7086H181.198L179.763 51.4271ZM178.902 47.5296V50.4765H179.763C180.209 50.4765 180.56 50.318 180.815 50.0012C181.134 49.7477 181.293 49.3991 181.293 48.9555C181.293 48.5752 181.134 48.2267 180.815 47.9098C180.56 47.6563 180.209 47.5296 179.763 47.5296H178.902ZM190.286 46.5789V47.5296H187.32V49.6209H190.286V50.5715H187.32V52.758H190.286V53.6135H186.459V46.5789H190.286ZM196.505 50.0012C195.995 49.8744 195.58 49.6526 195.261 49.3357C194.942 49.0189 194.783 48.6386 194.783 48.195C194.783 47.688 194.942 47.2761 195.261 46.9592C195.58 46.6423 195.963 46.4839 196.409 46.4839C196.919 46.4839 197.334 46.6423 197.653 46.9592C197.844 47.1493 197.972 47.4345 198.035 47.8147L197.27 48.195C197.143 47.8781 197.047 47.688 196.983 47.6246C196.856 47.4979 196.664 47.4345 196.409 47.4345C196.218 47.4345 196.058 47.4979 195.931 47.6246C195.803 47.7514 195.739 47.9415 195.739 48.195C195.739 48.3851 195.803 48.5436 195.931 48.6703C196.058 48.8604 196.282 49.0189 196.6 49.1456C197.174 49.3357 197.653 49.6209 198.035 50.0012C198.482 50.3814 198.705 50.8884 198.705 51.5222C198.705 52.1559 198.482 52.6629 198.035 53.0431C197.589 53.4868 197.047 53.7086 196.409 53.7086C195.835 53.7086 195.325 53.4868 194.878 53.0431C194.559 52.7263 194.336 52.251 194.209 51.6172L195.07 51.332C195.133 51.839 195.293 52.2193 195.548 52.4728C195.803 52.7263 196.09 52.853 196.409 52.853C196.792 52.853 197.111 52.7263 197.366 52.4728C197.621 52.2193 197.748 51.9024 197.748 51.5222C197.748 51.1419 197.621 50.825 197.366 50.5715C197.111 50.3814 196.824 50.1913 196.505 50.0012ZM205.402 46.5789L207.985 53.6135H207.028L206.072 51.1419H204.158L203.297 53.6135H202.341L204.924 46.5789H205.402ZM205.689 50.1913L205.115 48.5752L204.541 50.1913H205.689ZM213.725 51.4271H212.864V53.6135H212.003V46.5789H214.012C214.586 46.6423 215.065 46.8641 215.447 47.2444C215.894 47.7514 216.117 48.3217 216.117 48.9555C216.117 49.6526 215.894 50.223 215.447 50.6666C215.128 50.9835 214.873 51.1736 214.682 51.237L216.308 53.6135H215.16L213.725 51.4271ZM212.864 47.6246V50.5715H213.725C214.108 50.5715 214.459 50.4131 214.778 50.0962C215.096 49.8427 215.256 49.4942 215.256 49.0505C215.256 48.6703 215.096 48.3217 214.778 48.0049C214.459 47.7514 214.108 47.6246 213.725 47.6246H212.864ZM221.379 46.674V53.7086H220.422V46.674H221.379ZM228.65 46.674L231.233 53.7086H230.276L229.319 51.237H227.502L226.545 53.7086H225.588L228.171 46.674H228.65ZM229.032 50.2864L228.363 48.6703L227.789 50.2864H229.032ZM235.347 53.7086V46.674H236.303V52.853H238.791V53.7086H235.347Z" fill="#D3CAB7"/>
</svg>
